# xmcd
#
# Track frame offsets:
#	150
#	19531
#	40983
#	63757
#	84702
#	105616
#	123243
#	141182
#	159521
#	181702
#	204544
#	226755
#	250942
#	271249
#	290502
#
# Disc length: 4154
#
# Revision: 2
# Processed by: cddbd v1.5.1PL0 Copyright (c) Steve Scherf et al.
# Submitted via: tcd 2.0b
# Normalized: r1:DSETVAR1,TDELIM( - )
#
DISCID=c410380f
DTITLE=Various Artist - Los 30 Mejores de la Salsa CD2
DYEAR=1900
DGENRE=
TTITLE0=Grupo Galé - Mi vecina
TTITLE1=Hermanos Lebrón - Loco por tí
TTITLE2=Juan Carlos Coronel - Sobreviviré
TTITLE3=Grupo Niche - Cali Ají
TTITLE4=Melcochita - Kamaguey
TTITLE5=Carlos Guerrero - Corazón de Acero
TTITLE6=La Fórmula 8 - Yo que te amé
TTITLE7=La Identidad - Quiéreme
TTITLE8=Orquesta Canela - Embrujo de amor
TTITLE9=Henry Fiol - Changuería
TTITLE10=Grupo Niche - Sin sentimiento
TTITLE11=Octava Dimensión - Mentiras
TTITLE12=Juan Carlos Coronel - Patacón pisao
TTITLE13=Jorge Leo Rio Atrato - Amor tormentoso
TTITLE14=Grupo Caneo - María La O
EXTD=
EXTT0=
EXTT1=
EXTT2=
EXTT3=
EXTT4=
EXTT5=
EXTT6=
EXTT7=
EXTT8=
EXTT9=
EXTT10=
EXTT11=
EXTT12=
EXTT13=
EXTT14=
PLAYORDER=
